<svg width="15" height="10" viewBox="0 0 15 10" fill="none" xmlns="http://www.w3.org/2000/svg">
<path d="M6.0917 9.86219C5.96044 9.86245 5.83041 9.8368 5.70908 9.78669C5.58776 9.73658 5.47752 9.663 5.3847 9.57019L1.1427 5.32719C1.04713 5.23501 0.970869 5.12472 0.918376 5.00275C0.865882 4.88078 0.838205 4.74959 0.836958 4.61681C0.835711 4.48403 0.86092 4.35233 0.911114 4.2294C0.961308 4.10647 1.03548 3.99477 1.12931 3.90081C1.22313 3.80685 1.33473 3.73252 1.45759 3.68215C1.58045 3.63179 1.71211 3.60639 1.84489 3.60745C1.97767 3.60851 2.10891 3.636 2.23095 3.68832C2.35299 3.74064 2.46339 3.81675 2.5557 3.91219L6.0907 7.44719L12.4557 1.08419C12.6432 0.896547 12.8976 0.791079 13.1628 0.790985C13.4281 0.790891 13.6826 0.89618 13.8702 1.08369C14.0578 1.2712 14.1633 1.52556 14.1634 1.79083C14.1635 2.0561 14.0582 2.31055 13.8707 2.49819L6.7987 9.57019C6.70588 9.663 6.59564 9.73658 6.47432 9.78669C6.35299 9.8368 6.22297 9.86245 6.0917 9.86219Z" fill="white"/>
</svg>
