<svg width="24" height="25" viewBox="0 0 24 25" fill="none" xmlns="http://www.w3.org/2000/svg">
<path fill-rule="evenodd" clip-rule="evenodd" d="M21.5999 12.3886C21.5999 17.0278 17.3018 20.7886 11.9999 20.7886C10.2099 20.7886 8.53439 20.3599 7.10002 19.6136L2.3999 20.7886L4.00587 17.0413C2.99126 15.7093 2.3999 14.1094 2.3999 12.3886C2.3999 7.74939 6.69797 3.98859 11.9999 3.98859C17.3018 3.98859 21.5999 7.74939 21.5999 12.3886ZM8.3999 11.1886H5.9999V13.5886H8.3999V11.1886ZM17.9999 11.1886H15.5999V13.5886H17.9999V11.1886ZM10.7999 11.1886H13.1999V13.5886H10.7999V11.1886Z" fill="#7F7F7F80"/>
<path fill-rule="evenodd" clip-rule="evenodd" d="M21.5999 12.3886C21.5999 17.0278 17.3018 20.7886 11.9999 20.7886C10.2099 20.7886 8.53439 20.3599 7.10002 19.6136L2.3999 20.7886L4.00587 17.0413C2.99126 15.7093 2.3999 14.1094 2.3999 12.3886C2.3999 7.74939 6.69797 3.98859 11.9999 3.98859C17.3018 3.98859 21.5999 7.74939 21.5999 12.3886ZM8.3999 11.1886H5.9999V13.5886H8.3999V11.1886ZM17.9999 11.1886H15.5999V13.5886H17.9999V11.1886ZM10.7999 11.1886H13.1999V13.5886H10.7999V11.1886Z" fill="#7F7F7F80"/>
</svg>
