<svg width="24" height="25" viewBox="0 0 24 25" fill="none" xmlns="http://www.w3.org/2000/svg">
<path d="M12 14.7886C13.3255 14.7886 14.4 13.7141 14.4 12.3886C14.4 11.0631 13.3255 9.98859 12 9.98859C10.6745 9.98859 9.60001 11.0631 9.60001 12.3886C9.60001 13.7141 10.6745 14.7886 12 14.7886Z" fill="#7F7F7F80"/>
<path d="M12 14.7886C13.3255 14.7886 14.4 13.7141 14.4 12.3886C14.4 11.0631 13.3255 9.98859 12 9.98859C10.6745 9.98859 9.60001 11.0631 9.60001 12.3886C9.60001 13.7141 10.6745 14.7886 12 14.7886Z" fill="#7F7F7F80"/>
<path fill-rule="evenodd" clip-rule="evenodd" d="M0.549316 12.3886C2.07842 7.52008 6.62678 3.98859 12 3.98859C17.3731 3.98859 21.9215 7.52004 23.4506 12.3885C21.9215 17.2571 17.3731 20.7886 11.9999 20.7886C6.62679 20.7886 2.07845 17.2571 0.549316 12.3886ZM16.8 12.3886C16.8 15.0396 14.651 17.1886 12 17.1886C9.34904 17.1886 7.20001 15.0396 7.20001 12.3886C7.20001 9.73762 9.34904 7.58859 12 7.58859C14.651 7.58859 16.8 9.73762 16.8 12.3886Z" fill="#7F7F7F80"/>
<path fill-rule="evenodd" clip-rule="evenodd" d="M0.549316 12.3886C2.07842 7.52008 6.62678 3.98859 12 3.98859C17.3731 3.98859 21.9215 7.52004 23.4506 12.3885C21.9215 17.2571 17.3731 20.7886 11.9999 20.7886C6.62679 20.7886 2.07845 17.2571 0.549316 12.3886ZM16.8 12.3886C16.8 15.0396 14.651 17.1886 12 17.1886C9.34904 17.1886 7.20001 15.0396 7.20001 12.3886C7.20001 9.73762 9.34904 7.58859 12 7.58859C14.651 7.58859 16.8 9.73762 16.8 12.3886Z" fill="#7F7F7F80"/>
</svg>
