<svg width="24" height="25" viewBox="0 0 24 25" fill="none" xmlns="http://www.w3.org/2000/svg">
<path d="M2.3999 12.9886C2.3999 11.9945 3.20579 11.1886 4.1999 11.1886C5.19401 11.1886 5.9999 11.9945 5.9999 12.9886V20.1886C5.9999 21.1827 5.19401 21.9886 4.1999 21.9886C3.20579 21.9886 2.3999 21.1827 2.3999 20.1886V12.9886Z" fill="#7F7F7F80"/>
<path d="M2.3999 12.9886C2.3999 11.9945 3.20579 11.1886 4.1999 11.1886C5.19401 11.1886 5.9999 11.9945 5.9999 12.9886V20.1886C5.9999 21.1827 5.19401 21.9886 4.1999 21.9886C3.20579 21.9886 2.3999 21.1827 2.3999 20.1886V12.9886Z" fill="#7F7F7F80" />
<path d="M7.1999 12.7886V19.3054C7.1999 20.2144 7.71351 21.0454 8.52659 21.452L8.5864 21.4819C9.25291 21.8151 9.98785 21.9886 10.733 21.9886H17.2324C18.3764 21.9886 19.3614 21.1811 19.5858 20.0593L21.0258 12.8593C21.3228 11.3742 20.1869 9.98863 18.6724 9.98863H14.3999V5.18863C14.3999 3.86315 13.3254 2.78864 11.9999 2.78864C11.3372 2.78864 10.7999 3.32589 10.7999 3.98863V4.78863C10.7999 5.82721 10.463 6.83777 9.8399 7.66863L8.1599 9.90863C7.53676 10.7395 7.1999 11.7501 7.1999 12.7886Z" fill="#7F7F7F80"/>
<path d="M7.1999 12.7886V19.3054C7.1999 20.2144 7.71351 21.0454 8.52659 21.452L8.5864 21.4819C9.25291 21.8151 9.98785 21.9886 10.733 21.9886H17.2324C18.3764 21.9886 19.3614 21.1811 19.5858 20.0593L21.0258 12.8593C21.3228 11.3742 20.1869 9.98863 18.6724 9.98863H14.3999V5.18863C14.3999 3.86315 13.3254 2.78864 11.9999 2.78864C11.3372 2.78864 10.7999 3.32589 10.7999 3.98863V4.78863C10.7999 5.82721 10.463 6.83777 9.8399 7.66863L8.1599 9.90863C7.53676 10.7395 7.1999 11.7501 7.1999 12.7886Z" fill="#7F7F7F80"/>
</svg>
