<svg width="25" height="25" viewBox="0 0 25 25" fill="none" xmlns="http://www.w3.org/2000/svg">
<path d="M14.7568 2.38861H6.75684C6.2264 2.38861 5.7177 2.59932 5.34262 2.9744C4.96755 3.34947 4.75684 3.85818 4.75684 4.38861V20.3886C4.75684 20.919 4.96755 21.4278 5.34262 21.8028C5.7177 22.1779 6.2264 22.3886 6.75684 22.3886H18.7568C19.2873 22.3886 19.796 22.1779 20.171 21.8028C20.5461 21.4278 20.7568 20.919 20.7568 20.3886V8.38861L14.7568 2.38861Z" stroke="#007AFF" stroke-width="2" stroke-linecap="round" stroke-linejoin="round"/>
<path d="M14.7568 2.38861V8.38861H20.7568" stroke="#007AFF" stroke-width="2" stroke-linecap="round" stroke-linejoin="round"/>
<path d="M16.7568 13.3886H8.75684" stroke="#007AFF" stroke-width="2" stroke-linecap="round" stroke-linejoin="round"/>
<path d="M16.7568 17.3886H8.75684" stroke="#007AFF" stroke-width="2" stroke-linecap="round" stroke-linejoin="round"/>
<path d="M10.7568 9.38861H9.75684H8.75684" stroke="#007AFF" stroke-width="2" stroke-linecap="round" stroke-linejoin="round"/>
</svg>
