<svg width="16" height="16" viewBox="0 0 16 16" fill="none" xmlns="http://www.w3.org/2000/svg">
<path d="M8.66683 7.33333V3.99999C8.66683 3.82318 8.59659 3.65361 8.47157 3.52859C8.34654 3.40357 8.17697 3.33333 8.00016 3.33333C7.82335 3.33333 7.65378 3.40357 7.52876 3.52859C7.40373 3.65361 7.3335 3.82318 7.3335 3.99999V7.99999C7.3335 8.17681 7.40373 8.34637 7.52876 8.4714C7.65378 8.59642 7.82335 8.66666 8.00016 8.66666H11.3335C11.5103 8.66666 11.6799 8.59642 11.8049 8.4714C11.9299 8.34637 12.0002 8.17681 12.0002 7.99999C12.0002 7.82318 11.9299 7.65361 11.8049 7.52859C11.6799 7.40357 11.5103 7.33333 11.3335 7.33333H8.66683ZM8.00016 14.6667C4.31816 14.6667 1.3335 11.682 1.3335 7.99999C1.3335 4.31799 4.31816 1.33333 8.00016 1.33333C11.6822 1.33333 14.6668 4.31799 14.6668 7.99999C14.6668 11.682 11.6822 14.6667 8.00016 14.6667Z" fill="#CE301E"/>
</svg>
