<svg width="25" height="24" viewBox="0 0 25 24" fill="none" xmlns="http://www.w3.org/2000/svg">
<path d="M16.328 9.172C16.3284 9.04057 16.3028 8.91035 16.2527 8.78885C16.2026 8.66734 16.1289 8.55695 16.036 8.46401C15.9431 8.37107 15.8327 8.29743 15.7112 8.24731C15.5896 8.1972 15.4594 8.1716 15.328 8.172H9.328C9.06278 8.172 8.80843 8.27736 8.62089 8.46489C8.43336 8.65243 8.328 8.90678 8.328 9.172C8.328 9.43722 8.43336 9.69157 8.62089 9.87911C8.80843 10.0666 9.06278 10.172 9.328 10.172H12.914L8.964 14.122C8.77649 14.3096 8.6712 14.5641 8.6713 14.8294C8.67139 15.0946 8.77686 15.349 8.9645 15.5365C9.15214 15.724 9.40658 15.8293 9.67185 15.8292C9.93712 15.8291 10.1915 15.7236 10.379 15.536L14.329 11.586V15.172C14.329 15.4372 14.4344 15.6916 14.6219 15.8791C14.8094 16.0666 15.0638 16.172 15.329 16.172C15.5942 16.172 15.8486 16.0666 16.0361 15.8791C16.2236 15.6916 16.329 15.4372 16.329 15.172V9.172H16.328ZM6.5 2H18.5C19.5609 2 20.5783 2.42143 21.3284 3.17157C22.0786 3.92172 22.5 4.93913 22.5 6V18C22.5 19.0609 22.0786 20.0783 21.3284 20.8284C20.5783 21.5786 19.5609 22 18.5 22H6.5C5.43913 22 4.42172 21.5786 3.67157 20.8284C2.92143 20.0783 2.5 19.0609 2.5 18V6C2.5 4.93913 2.92143 3.92172 3.67157 3.17157C4.42172 2.42143 5.43913 2 6.5 2V2Z" fill="white"/>
</svg>
