<svg width="25" height="24" viewBox="0 0 25 24" fill="none" xmlns="http://www.w3.org/2000/svg">
<path d="M10.4281 11.24C10.5327 11.7839 10.5239 12.3436 10.4021 12.884L15.4421 15.421C16.07 14.677 16.9476 14.1876 17.9106 14.0444C18.8736 13.9012 19.8557 14.1141 20.6729 14.6432C21.4901 15.1724 22.0863 15.9814 22.3497 16.9186C22.6131 17.8558 22.5257 18.857 22.1038 19.7343C21.6819 20.6117 20.9545 21.3051 20.0579 21.6846C19.1613 22.064 18.1572 22.1034 17.2336 21.7955C16.3101 21.4875 15.5305 20.8534 15.0411 20.0118C14.5517 19.1702 14.386 18.179 14.5751 17.224L9.48505 14.662C8.94196 15.2711 8.22558 15.6995 7.43202 15.8897C6.63846 16.08 5.80571 16.0229 5.04549 15.7263C4.28527 15.4297 3.63397 14.9076 3.17897 14.2302C2.72398 13.5528 2.48706 12.7524 2.50002 11.9364C2.51297 11.1205 2.77517 10.3281 3.25144 9.66541C3.72771 9.00277 4.39526 8.50165 5.16451 8.2293C5.93376 7.95694 6.76791 7.92638 7.55503 8.14172C8.34215 8.35706 9.04457 8.80799 9.56805 9.434L14.6041 6.912C14.382 5.96412 14.5133 4.9678 14.9733 4.10978C15.4333 3.25176 16.1904 2.59095 17.1027 2.25121C18.015 1.91146 19.02 1.9161 19.9291 2.26426C20.8383 2.61242 21.5893 3.2802 22.0413 4.14243C22.4933 5.00466 22.6154 6.00215 22.3846 6.94794C22.1538 7.89373 21.586 8.72289 20.7877 9.28001C19.9893 9.83713 19.0152 10.084 18.0478 9.97424C17.0805 9.86452 16.1864 9.40578 15.5331 8.684L10.4281 11.24Z" fill="white"/>
</svg>
