<svg width="14" height="14" viewBox="0 0 14 14" fill="none" xmlns="http://www.w3.org/2000/svg">
<path fill-rule="evenodd" clip-rule="evenodd" d="M7.0001 13.1254C10.5347 13.1254 13.4001 10.26 13.4001 6.72538C13.4001 3.19076 10.5347 0.325378 7.0001 0.325378C3.46548 0.325378 0.600098 3.19076 0.600098 6.72538C0.600098 10.26 3.46548 13.1254 7.0001 13.1254ZM9.96578 5.69106C10.2782 5.37864 10.2782 4.87211 9.96578 4.55969C9.65336 4.24727 9.14683 4.24727 8.83441 4.55969L6.2001 7.19401L5.16578 6.15969C4.85336 5.84727 4.34683 5.84727 4.03441 6.15969C3.72199 6.47211 3.72199 6.97864 4.03441 7.29106L5.63441 8.89106C5.94683 9.20348 6.45336 9.20348 6.76578 8.89106L9.96578 5.69106Z" fill="#34C759"/>
</svg>
