<svg width="14" height="15" viewBox="0 0 14 15" fill="none" xmlns="http://www.w3.org/2000/svg">
<path d="M7.66683 6.69604V3.36271C7.66683 3.1859 7.59659 3.01633 7.47157 2.89131C7.34654 2.76628 7.17697 2.69604 7.00016 2.69604C6.82335 2.69604 6.65378 2.76628 6.52876 2.89131C6.40373 3.01633 6.3335 3.1859 6.3335 3.36271V7.36271C6.3335 7.53952 6.40373 7.70909 6.52876 7.83412C6.65378 7.95914 6.82335 8.02938 7.00016 8.02938H10.3335C10.5103 8.02938 10.6799 7.95914 10.8049 7.83412C10.9299 7.70909 11.0002 7.53952 11.0002 7.36271C11.0002 7.1859 10.9299 7.01633 10.8049 6.89131C10.6799 6.76628 10.5103 6.69604 10.3335 6.69604H7.66683ZM7.00016 14.0294C3.31816 14.0294 0.333496 11.0447 0.333496 7.36271C0.333496 3.68071 3.31816 0.696045 7.00016 0.696045C10.6822 0.696045 13.6668 3.68071 13.6668 7.36271C13.6668 11.0447 10.6822 14.0294 7.00016 14.0294Z" fill="#FF9500"/>
</svg>
