<svg width="54" height="54" viewBox="0 0 54 54" fill="none" xmlns="http://www.w3.org/2000/svg">
<g clip-path="url(#clip0_931_895)">
<path d="M36 27H47.25M27 6.75V18V6.75Z" stroke="#2663A0" stroke-width="2" stroke-linecap="round" stroke-linejoin="round"/>
<path d="M27 36C31.9706 36 36 31.9706 36 27C36 22.0294 31.9706 18 27 18C22.0294 18 18 22.0294 18 27C18 31.9706 22.0294 36 27 36Z" stroke="#2663A0" stroke-width="2" stroke-linecap="round" stroke-linejoin="round"/>
<path d="M27 47.25C38.1838 47.25 47.25 38.1838 47.25 27C47.25 15.8162 38.1838 6.75 27 6.75C15.8162 6.75 6.75 15.8162 6.75 27C6.75 38.1838 15.8162 47.25 27 47.25Z" stroke="#2663A0" stroke-width="2" stroke-linecap="round" stroke-linejoin="round"/>
</g>
<defs>
<clipPath id="clip0_931_895">
<rect width="54" height="54" fill="white"/>
</clipPath>
</defs>
</svg>
