<svg width="54" height="54" viewBox="0 0 54 54" fill="none" xmlns="http://www.w3.org/2000/svg">
<g clip-path="url(#clip0_931_905)">
<path d="M20.25 11.25H15.75C14.5565 11.25 13.4119 11.7241 12.568 12.568C11.7241 13.4119 11.25 14.5565 11.25 15.75V42.75C11.25 43.9435 11.7241 45.0881 12.568 45.932C13.4119 46.7759 14.5565 47.25 15.75 47.25H38.25C39.4435 47.25 40.5881 46.7759 41.432 45.932C42.2759 45.0881 42.75 43.9435 42.75 42.75V15.75C42.75 14.5565 42.2759 13.4119 41.432 12.568C40.5881 11.7241 39.4435 11.25 38.25 11.25H33.75" stroke="#2663A0" stroke-width="2" stroke-linecap="round" stroke-linejoin="round"/>
<path d="M29.25 6.75H24.75C22.2647 6.75 20.25 8.76472 20.25 11.25C20.25 13.7353 22.2647 15.75 24.75 15.75H29.25C31.7353 15.75 33.75 13.7353 33.75 11.25C33.75 8.76472 31.7353 6.75 29.25 6.75Z" stroke="#2663A0" stroke-width="2" stroke-linecap="round" stroke-linejoin="round"/>
<path d="M20.25 27H33.75" stroke="#2663A0" stroke-width="2" stroke-linecap="round" stroke-linejoin="round"/>
<path d="M20.25 36H33.75" stroke="#2663A0" stroke-width="2" stroke-linecap="round" stroke-linejoin="round"/>
</g>
<defs>
<clipPath id="clip0_931_905">
<rect width="54" height="54" fill="white"/>
</clipPath>
</defs>
</svg>
