<svg width="55" height="54" viewBox="0 0 55 54" fill="none" xmlns="http://www.w3.org/2000/svg">
<g clip-path="url(#clip0_931_898)">
<path d="M18.667 9H14.167L7.41699 31.5" stroke="#2663A0" stroke-width="2" stroke-linecap="round" stroke-linejoin="round"/>
<path d="M36.667 9H41.167L47.917 31.5" stroke="#2663A0" stroke-width="2" stroke-linecap="round" stroke-linejoin="round"/>
<path d="M23.167 36H32.167" stroke="#2663A0" stroke-width="2" stroke-linecap="round" stroke-linejoin="round"/>
<path d="M47.917 37.125C47.917 39.2136 47.0873 41.2166 45.6105 42.6935C44.1336 44.1703 42.1306 45 40.042 45C37.9534 45 35.9504 44.1703 34.4735 42.6935C32.9967 41.2166 32.167 39.2136 32.167 37.125V31.5H47.917V37.125Z" stroke="#2663A0" stroke-width="2" stroke-linecap="round" stroke-linejoin="round"/>
<path d="M23.167 37.125C23.167 39.2136 22.3373 41.2166 20.8605 42.6935C19.3836 44.1703 17.3806 45 15.292 45C13.2034 45 11.2004 44.1703 9.72353 42.6935C8.24668 41.2166 7.41699 39.2136 7.41699 37.125V31.5H23.167V37.125Z" stroke="#2663A0" stroke-width="2" stroke-linecap="round" stroke-linejoin="round"/>
</g>
<defs>
<clipPath id="clip0_931_898">
<rect width="54" height="54" fill="white" transform="translate(0.666992)"/>
</clipPath>
</defs>
</svg>
