<svg width="55" height="54" viewBox="0 0 55 54" fill="none" xmlns="http://www.w3.org/2000/svg">
<g clip-path="url(#clip0_931_902)">
<path d="M29.5833 22.5L46.195 39.1905C48.0467 41.0355 48.0467 44.0235 46.195 45.8663C45.3054 46.7511 44.1017 47.2478 42.847 47.2478C41.5923 47.2478 40.3886 46.7511 39.499 45.8663L22.8333 29.25" stroke="#2663A0" stroke-width="2" stroke-linecap="round" stroke-linejoin="round"/>
<path d="M13.8333 20.25L22.8333 29.25" stroke="#2663A0" stroke-width="2" stroke-linecap="round" stroke-linejoin="round"/>
<path d="M29.5833 22.5L20.5833 13.5" stroke="#2663A0" stroke-width="2" stroke-linecap="round" stroke-linejoin="round"/>
<path d="M7.08325 47.25H22.8333" stroke="#2663A0" stroke-width="2" stroke-linecap="round" stroke-linejoin="round"/>
<path d="M15.6174 35.5343L7.54891 27.4658C7.1271 27.0438 6.89014 26.4716 6.89014 25.875C6.89014 25.2784 7.1271 24.7062 7.54891 24.2843L12.7082 19.125L13.8332 20.25L20.5832 13.5L19.4582 12.375L24.6174 7.21578C25.0393 6.79397 25.6115 6.55701 26.2082 6.55701C26.8048 6.55701 27.377 6.79397 27.7989 7.21578L35.8674 15.2843C36.2892 15.7062 36.5262 16.2784 36.5262 16.875C36.5262 17.4716 36.2892 18.0438 35.8674 18.4658L30.7082 23.625L29.5832 22.5L22.8332 29.25L23.9582 30.375L18.7989 35.5343C18.377 35.9561 17.8048 36.193 17.2082 36.193C16.6115 36.193 16.0393 35.9561 15.6174 35.5343V35.5343Z" stroke="#2663A0" stroke-width="2" stroke-linecap="round" stroke-linejoin="round"/>
</g>
<defs>
<clipPath id="clip0_931_902">
<rect width="54" height="54" fill="white" transform="translate(0.333252)"/>
</clipPath>
</defs>
</svg>
