<svg width="16" height="16" viewBox="0 0 16 16" fill="none" xmlns="http://www.w3.org/2000/svg">
<g clip-path="url(#clip0_921_1881)">
<path d="M8 16C3.5816 16 0 12.4184 0 8C0 3.5824 3.5816 0 8 0C12.4184 0 16 3.5824 16 8C16 12.4184 12.4184 16 8 16ZM9.0208 9.4256L9.336 9.1792C9.62575 8.9528 9.86807 8.67155 10.0491 8.3515C10.2302 8.03145 10.3464 7.67888 10.3912 7.31391C10.436 6.94894 10.4085 6.57872 10.3102 6.22438C10.2119 5.87005 10.0448 5.53855 9.8184 5.2488C9.592 4.95905 9.31075 4.71673 8.9907 4.53568C8.67065 4.35463 8.31808 4.23838 7.95311 4.19359C7.58814 4.14879 7.21792 4.17632 6.86358 4.27461C6.50925 4.37289 6.17775 4.54 5.888 4.7664L5.5728 5.0128C5.48828 5.07684 5.41733 5.15705 5.36409 5.24876C5.31084 5.34048 5.27636 5.44186 5.26265 5.54701C5.24894 5.65217 5.25628 5.759 5.28423 5.8613C5.31218 5.96359 5.36019 6.05931 5.42547 6.14289C5.49075 6.22646 5.57199 6.29622 5.66448 6.34811C5.75696 6.4 5.85884 6.43299 5.96418 6.44515C6.06953 6.45732 6.17624 6.44841 6.27812 6.41896C6.37999 6.38951 6.47499 6.3401 6.5576 6.2736L6.8728 6.0272C7.12369 5.83249 7.44154 5.74517 7.75669 5.78438C8.07185 5.82359 8.35861 5.98614 8.55413 6.2364C8.74966 6.48665 8.83801 6.80422 8.79982 7.1195C8.76163 7.43478 8.60002 7.72206 8.3504 7.9184L8.0352 8.1648C7.95241 8.22952 7.88319 8.3099 7.83147 8.40137C7.77975 8.49284 7.74655 8.5936 7.73378 8.6979C7.721 8.8022 7.72889 8.908 7.757 9.00924C7.78511 9.11049 7.83288 9.20522 7.8976 9.288C7.96232 9.37079 8.0427 9.44001 8.13417 9.49173C8.22564 9.54345 8.3264 9.57665 8.4307 9.58942C8.535 9.6022 8.64079 9.59431 8.74204 9.5662C8.84329 9.53809 8.93801 9.49032 9.0208 9.4256ZM8 12C8.21217 12 8.41566 11.9157 8.56569 11.7657C8.71571 11.6157 8.8 11.4122 8.8 11.2C8.8 10.9878 8.71571 10.7843 8.56569 10.6343C8.41566 10.4843 8.21217 10.4 8 10.4C7.78783 10.4 7.58434 10.4843 7.43431 10.6343C7.28429 10.7843 7.2 10.9878 7.2 11.2C7.2 11.4122 7.28429 11.6157 7.43431 11.7657C7.58434 11.9157 7.78783 12 8 12Z" fill="white"/>
</g>
<defs>
<clipPath id="clip0_921_1881">
<rect width="16" height="16" fill="white"/>
</clipPath>
</defs>
</svg>
