<svg width="55" height="54" viewBox="0 0 55 54" fill="none" xmlns="http://www.w3.org/2000/svg">
<g clip-path="url(#clip0_931_908)">
<path d="M34.417 47.25H14.167C12.3768 47.25 10.6599 46.5388 9.39402 45.273C8.12815 44.0071 7.41699 42.2902 7.41699 40.5V38.25H29.917V42.75C29.917 43.9435 30.3911 45.0881 31.235 45.932C32.0789 46.7759 33.2235 47.25 34.417 47.25ZM34.417 47.25C35.6105 47.25 36.7551 46.7759 37.599 45.932C38.4429 45.0881 38.917 43.9435 38.917 42.75V11.25C38.917 10.36 39.1809 9.48996 39.6754 8.74994C40.1698 8.00991 40.8726 7.43314 41.6949 7.09254C42.5172 6.75195 43.422 6.66283 44.2949 6.83647C45.1678 7.0101 45.9696 7.43868 46.599 8.06802C47.2283 8.69736 47.6569 9.49918 47.8305 10.3721C48.0042 11.245 47.915 12.1498 47.5745 12.9721C47.2339 13.7943 46.6571 14.4971 45.9171 14.9916C45.177 15.4861 44.307 15.75 43.417 15.75H38.917M43.417 6.75H18.667C16.8768 6.75 15.1599 7.46116 13.894 8.72703C12.6282 9.9929 11.917 11.7098 11.917 13.5V38.25" stroke="#2663A0" stroke-width="2" stroke-linecap="round" stroke-linejoin="round"/>
<path d="M20.917 15.75H29.917" stroke="#2663A0" stroke-width="2" stroke-linecap="round" stroke-linejoin="round"/>
<path d="M20.917 24.75H29.917" stroke="#2663A0" stroke-width="2" stroke-linecap="round" stroke-linejoin="round"/>
</g>
<defs>
<clipPath id="clip0_931_908">
<rect width="54" height="54" fill="white" transform="translate(0.666992)"/>
</clipPath>
</defs>
</svg>
