<svg width="32" height="32" viewBox="0 0 32 32" fill="none" xmlns="http://www.w3.org/2000/svg">
<path d="M15.9998 18.4373L11.2852 13.724C11.0337 13.4811 10.6969 13.3467 10.3473 13.3498C9.99771 13.3528 9.66329 13.493 9.41608 13.7402C9.16887 13.9875 9.02864 14.3219 9.0256 14.6715C9.02257 15.0211 9.15696 15.3579 9.39984 15.6093L15.0572 21.2667C15.1807 21.3909 15.3276 21.4895 15.4894 21.5568C15.6511 21.6241 15.8246 21.6587 15.9998 21.6587C16.175 21.6587 16.3485 21.6241 16.5103 21.5568C16.6721 21.4895 16.819 21.3909 16.9425 21.2667L22.5998 15.6093C22.7272 15.4863 22.8288 15.3392 22.8986 15.1765C22.9685 15.0139 23.0053 14.8389 23.0068 14.6619C23.0084 14.4848 22.9746 14.3093 22.9076 14.1454C22.8406 13.9815 22.7416 13.8327 22.6164 13.7075C22.4912 13.5823 22.3423 13.4833 22.1784 13.4162C22.0146 13.3492 21.839 13.3155 21.662 13.317C21.4849 13.3185 21.31 13.3553 21.1473 13.4252C20.9846 13.4951 20.8375 13.5967 20.7145 13.724L15.9998 18.4373ZM7.99984 2.66667H23.9998C25.4143 2.66667 26.7709 3.22857 27.7711 4.22877C28.7713 5.22896 29.3332 6.58551 29.3332 8V24C29.3332 25.4145 28.7713 26.771 27.7711 27.7712C26.7709 28.7714 25.4143 29.3333 23.9998 29.3333H7.99984C6.58535 29.3333 5.2288 28.7714 4.2286 27.7712C3.22841 26.771 2.6665 25.4145 2.6665 24V8C2.6665 6.58551 3.22841 5.22896 4.2286 4.22877C5.2288 3.22857 6.58535 2.66667 7.99984 2.66667V2.66667Z" fill="white"/>
</svg>
