<svg width="16" height="16" viewBox="0 0 16 16" fill="none" xmlns="http://www.w3.org/2000/svg">
<path d="M7.99461 5.20988C8.48292 5.20988 8.88011 5.59316 8.88011 6.06452C8.88011 6.53551 8.48292 6.91904 7.99461 6.91904C7.50669 6.91904 7.10911 6.53551 7.10911 6.06452C7.10911 5.59316 7.50669 5.20988 7.99461 5.20988Z" fill="white"/>
<path fill-rule="evenodd" clip-rule="evenodd" d="M8 0C3.58172 0 0 3.58172 0 8C0 12.4183 3.58172 16 8 16C12.4183 16 16 12.4183 16 8C16 3.58172 12.4183 0 8 0ZM7.99466 8.12844C9.17435 8.12844 10.1333 7.20265 10.1333 6.06453C10.1333 4.92604 9.17435 4 7.99466 4C6.81523 4 5.85602 4.92604 5.85602 6.06453C5.85602 7.20265 6.81523 8.12844 7.99466 8.12844ZM8.86542 9.81343C9.30075 9.7177 9.72059 9.55145 10.1073 9.317C10.3999 9.13889 10.4881 8.76548 10.3037 8.48299C10.1195 8.19988 9.73288 8.11465 9.43972 8.29277C8.56368 8.82452 7.43582 8.8244 6.5603 8.29277C6.26714 8.11465 5.88043 8.19988 5.69655 8.48299C5.51216 8.76573 5.60007 9.13889 5.89272 9.317C6.27942 9.5512 6.69927 9.7177 7.13459 9.81343L5.93891 10.9676C5.6945 11.2038 5.6945 11.5867 5.93917 11.8229C6.06163 11.9408 6.22184 11.9999 6.38205 11.9999C6.54251 11.9999 6.70298 11.9408 6.82544 11.8229L7.99988 10.6887L9.17534 11.8229C9.41975 12.059 9.81631 12.059 10.061 11.8229C10.3059 11.5867 10.3059 11.2035 10.061 10.9676L8.86542 9.81343Z" fill="white"/>
</svg>
