<svg width="55" height="54" viewBox="0 0 55 54" fill="none" xmlns="http://www.w3.org/2000/svg">
<g clip-path="url(#clip0_932_571)">
<path d="M11.5833 47.25V11.25C11.5833 10.0565 12.0574 8.91193 12.9013 8.06802C13.7452 7.22411 14.8898 6.75 16.0833 6.75H38.5833C39.7767 6.75 40.9213 7.22411 41.7652 8.06802C42.6091 8.91193 43.0833 10.0565 43.0833 11.25V47.25L36.3333 42.75L31.8333 47.25L27.3333 42.75L22.8333 47.25L18.3333 42.75L11.5833 47.25Z" stroke="#259D18" stroke-width="2" stroke-linecap="round" stroke-linejoin="round"/>
<path d="M34.0833 31.5V27C34.0833 25.8065 33.6091 24.6619 32.7652 23.818C31.9213 22.9741 30.7767 22.5 29.5833 22.5H20.5833M20.5833 22.5L25.0833 18M20.5833 22.5L25.0833 27" stroke="#259D18" stroke-width="2" stroke-linecap="round" stroke-linejoin="round"/>
</g>
<defs>
<clipPath id="clip0_932_571">
<rect width="54" height="54" fill="white" transform="translate(0.333252)"/>
</clipPath>
</defs>
</svg>
