<svg width="16" height="16" viewBox="0 0 16 16" fill="none" xmlns="http://www.w3.org/2000/svg">
<g clip-path="url(#clip0_921_1899)">
<path d="M8 2.75631e-08C6.41775 2.75631e-08 4.87103 0.469192 3.55544 1.34824C2.23985 2.22729 1.21447 3.47672 0.608967 4.93853C0.00346627 6.40034 -0.15496 8.00887 0.153721 9.56072C0.462403 11.1126 1.22433 12.538 2.34315 13.6569C3.46197 14.7757 4.88743 15.5376 6.43928 15.8463C7.99113 16.155 9.59966 15.9965 11.0615 15.391C12.5233 14.7855 13.7727 13.7602 14.6518 12.4446C15.5308 11.129 16 9.58225 16 8C16.0001 6.9494 15.7932 5.90907 15.3912 4.93843C14.9892 3.96778 14.3999 3.08584 13.6571 2.34295C12.9142 1.60006 12.0322 1.01079 11.0616 0.608786C10.0909 0.206779 9.0506 -8.7183e-05 8 2.75631e-08ZM10.5436 12.122C10.5137 12.1966 10.4681 12.264 10.41 12.3197C10.3519 12.3753 10.2825 12.4178 10.2066 12.4444C10.1307 12.4711 10.05 12.4812 9.96985 12.4741C9.88972 12.4669 9.81204 12.4428 9.74201 12.4032L7.57027 10.7157L6.17642 12.0016C6.14408 12.0255 6.10624 12.0409 6.0664 12.0463C6.02656 12.0518 5.98599 12.0471 5.94842 12.0327L6.21562 9.64198L6.22417 9.64877L6.22963 9.60157C6.22963 9.60157 10.1376 6.04356 10.2968 5.89197C10.458 5.74077 10.4048 5.70797 10.4048 5.70797C10.414 5.52354 10.1156 5.70797 10.1156 5.70797L4.9376 9.0392L2.78121 8.3048C2.78121 8.3048 2.45001 8.186 2.41881 7.9248C2.38601 7.6656 2.792 7.5248 2.792 7.5248L11.3656 4.11879C11.3656 4.11879 12.0704 3.80477 12.0704 4.3248L10.5436 12.122Z" fill="white"/>
</g>
<defs>
<clipPath id="clip0_921_1899">
<rect width="16" height="16" fill="white"/>
</clipPath>
</defs>
</svg>
