<svg width="16" height="16" viewBox="0 0 16 16" fill="none" xmlns="http://www.w3.org/2000/svg">
<path d="M8 0C12.4183 0 16 3.58172 16 8C16 12.4183 12.4183 16 8 16C3.58172 16 0 12.4183 0 8C2.2549e-07 3.58172 3.58172 2.25497e-07 8 0ZM7.83691 5.86719C7.37929 5.86268 6.99205 5.86947 6.77246 5.97461C6.62648 6.04462 6.51345 6.20076 6.58203 6.20996C6.66676 6.22102 6.8591 6.26145 6.96094 6.39746C7.0912 6.57224 7.08795 6.96155 7.08789 6.9668C7.08789 6.9668 7.16322 8.05369 6.91113 8.18848C6.73835 8.28098 6.50075 8.09145 5.99121 7.22754C5.73046 6.78518 5.53418 6.2959 5.53418 6.2959C5.53285 6.29273 5.49455 6.20356 5.42773 6.15527C5.34553 6.09597 5.23047 6.07812 5.23047 6.07812L4.01172 6.08594C4.01172 6.08594 3.82794 6.0907 3.76074 6.16895C3.70148 6.2383 3.75684 6.38184 3.75684 6.38184C3.7646 6.39965 4.71551 8.57826 5.79199 9.67871C6.77372 10.6817 7.88693 10.6262 7.9082 10.625H8.41895C8.42787 10.624 8.57488 10.606 8.65137 10.5254C8.72168 10.4512 8.72078 10.3129 8.7207 10.3057C8.7207 10.3057 8.71168 9.6343 9.0293 9.53516C9.34232 9.43767 9.74436 10.1845 10.1709 10.4717C10.4896 10.6863 10.7324 10.6416 10.7373 10.6406L11.877 10.625C11.877 10.625 12.473 10.589 12.1904 10.1289C12.1664 10.0898 12.0239 9.78693 11.3438 9.16699C10.6288 8.51604 10.7245 8.62114 11.585 7.49512C12.1092 6.80931 12.3185 6.38997 12.2529 6.21094C12.1909 6.04225 11.8143 6.08495 11.8057 6.08594L10.5225 6.09375C10.5225 6.09375 10.427 6.08069 10.3564 6.12207C10.29 6.16135 10.246 6.25089 10.2432 6.25684C10.2432 6.25684 10.0404 6.78779 9.76953 7.23926C9.19816 8.19137 8.96947 8.24161 8.87598 8.18262C8.65909 8.04438 8.71283 7.62916 8.71289 7.33398C8.71289 6.41096 8.85583 6.02533 8.43555 5.92578C8.29628 5.89263 8.19344 5.87088 7.83691 5.86719Z" fill="white"/>
</svg>
