<svg width="24" height="24" viewBox="0 0 24 24" fill="none" xmlns="http://www.w3.org/2000/svg">
<path d="M6 2H18C19.0609 2 20.0783 2.42143 20.8284 3.17157C21.5786 3.92172 22 4.93913 22 6V18C22 19.0609 21.5786 20.0783 20.8284 20.8284C20.0783 21.5786 19.0609 22 18 22H6C4.93913 22 3.92172 21.5786 3.17157 20.8284C2.42143 20.0783 2 19.0609 2 18V6C2 4.93913 2.42143 3.92172 3.17157 3.17157C3.92172 2.42143 4.93913 2 6 2V2ZM6 4C5.46957 4 4.96086 4.21071 4.58579 4.58579C4.21071 4.96086 4 5.46957 4 6V18C4 18.5304 4.21071 19.0391 4.58579 19.4142C4.96086 19.7893 5.46957 20 6 20H18C18.5304 20 19.0391 19.7893 19.4142 19.4142C19.7893 19.0391 20 18.5304 20 18V6C20 5.46957 19.7893 4.96086 19.4142 4.58579C19.0391 4.21071 18.5304 4 18 4H6ZM12 13.828L15.536 10.293C15.7246 10.1108 15.9772 10.01 16.2394 10.0123C16.5016 10.0146 16.7524 10.1198 16.9378 10.3052C17.1232 10.4906 17.2284 10.7414 17.2307 11.0036C17.233 11.2658 17.1322 11.5184 16.95 11.707L12.707 15.95C12.5195 16.1375 12.2652 16.2428 12 16.2428C11.7348 16.2428 11.4805 16.1375 11.293 15.95L7.05 11.707C6.86784 11.5184 6.76705 11.2658 6.76933 11.0036C6.7716 10.7414 6.87677 10.4906 7.06218 10.3052C7.24759 10.1198 7.4984 10.0146 7.7606 10.0123C8.0228 10.01 8.2754 10.1108 8.464 10.293L12 13.828Z" fill="#F7B565"/>
</svg>
