<svg width="16" height="16" viewBox="0 0 16 16" fill="none" xmlns="http://www.w3.org/2000/svg">
<path d="M7.2002 9.60002V6.93335L9.33353 8.26673L7.2002 9.60002Z" fill="white"/>
<path fill-rule="evenodd" clip-rule="evenodd" d="M8 0C3.58172 0 0 3.58172 0 8C0 12.4183 3.58172 16 8 16C12.4183 16 16 12.4183 16 8C16 3.58172 12.4183 0 8 0ZM12.0884 6.02439C11.9903 5.64739 11.7011 5.35051 11.3339 5.24976C10.6685 5.06665 8.00006 5.06665 8.00006 5.06665C8.00006 5.06665 5.3316 5.06665 4.66615 5.24976C4.29897 5.35051 4.00981 5.64739 3.91168 6.02439C3.7334 6.70766 3.7334 8.13332 3.7334 8.13332C3.7334 8.13332 3.7334 9.55892 3.91168 10.2422C4.00981 10.6192 4.29897 10.9161 4.66615 11.0169C5.3316 11.2 8.00006 11.2 8.00006 11.2C8.00006 11.2 10.6685 11.2 11.3339 11.0169C11.7011 10.9161 11.9903 10.6192 12.0884 10.2422C12.2667 9.55892 12.2667 8.13332 12.2667 8.13332C12.2667 8.13332 12.2667 6.70766 12.0884 6.02439Z" fill="white"/>
</svg>
