<svg width="513" height="644" viewBox="0 0 513 644" fill="none" xmlns="http://www.w3.org/2000/svg">
<g clip-path="url(#clip0_709_963)">
<path d="M286.86 616.93C286.86 616.93 34.8602 634.93 38.8602 380.93C38.8602 380.93 21.8602 420.93 21.8602 442.93C21.8602 442.93 -34.1398 284.93 94.8602 198.93C76.7172 194.283 57.6178 194.977 39.8602 200.93C39.8602 200.93 84.8602 157.93 132.86 148.93C132.86 148.93 104.86 122.93 111.86 123.93C111.86 123.93 190.86 128.93 224.86 104.93C224.86 104.93 262.86 12.93 320.86 11.93C320.86 11.93 318.86 80.93 332.86 87.93C332.86 87.93 332.86 50.93 394.86 25.93C394.86 25.93 376.86 104.93 390.86 127.93C390.86 127.93 413.86 147.93 418.86 190.93C418.86 190.93 438.86 230.93 487.86 260.93L510.86 272.93L492.86 290.93C492.86 290.93 462.86 312.93 419.86 300.93C376.86 288.93 340.86 275.93 304.86 313.93C268.86 351.93 356.86 404.93 392.86 419.93C428.86 434.93 500.86 538.93 473.86 627.93C473.86 627.93 406.86 540.93 368.86 544.93C368.86 544.93 373.86 571.93 412.86 599.93C412.86 599.93 308.86 601.93 249.86 586.93L286.86 616.93Z" fill="#EE620F"/>
<path d="M231.86 296.17C231.86 296.17 179.86 423.17 338.86 468.17C338.86 468.17 279.86 405.17 299.86 323.17C299.86 323.17 315.86 263.17 434.86 303.17C434.86 303.17 480.86 311.17 490.86 285.17L477.86 271.17C477.86 271.17 429.15 267.03 391.86 242.17C355.86 218.17 287.86 213.17 272.86 215.17C272.86 215.17 284.86 205.17 297.86 200.17C297.86 200.17 232.86 200.17 200.86 252.17C200.86 252.17 216.86 245.17 227.86 245.17C227.86 245.17 194.86 267.17 182.86 300.17C182.86 300.17 169.86 267.17 187.86 218.17C187.86 218.17 144.86 285.17 183.86 353.17C183.86 353.17 195.86 308.17 231.86 296.17Z" fill="white"/>
<path d="M489.859 263.93L507.859 271.93C507.859 271.93 486.199 285.93 483.859 271.93C482.859 265.93 489.859 263.93 489.859 263.93Z" fill="white"/>
<path d="M351.859 178.93C351.859 178.93 384.859 184.93 382.859 202.93C382.859 202.93 364.859 207.93 351.859 178.93Z" fill="white"/>
<path d="M272.86 109.93L293.86 126.93C293.86 126.93 316.86 122.93 315.86 102.93C314.86 82.93 304.86 36.93 313.86 20.93C313.86 20.93 258.86 67.93 272.86 109.93Z" fill="#FDFEFD"/>
<path d="M365.86 109.17C365.86 109.17 333.86 81.17 388.86 31.17C388.86 31.17 338.86 51.17 332.86 84.17L365.86 109.17Z" fill="#BA3F08"/>
<path d="M281.32 120.44C280.74 119.37 268.86 112.17 268.86 112.17C268.86 112.17 250.86 151.17 254.86 166.17C254.86 166.17 262.86 159.17 292.86 138.17C292.86 138.17 315.48 126.25 316.86 109.84C309.59 122.36 288.92 134.57 281.32 120.44Z" fill="#BA3F08"/>
<path d="M219.86 128.93C220.56 127.7 220.86 172.93 258.86 183.93C258.86 183.93 196.86 200.93 181.86 235.17C181.86 235.17 197.86 194.17 222.86 181.17C222.86 181.17 198.86 165.93 219.86 128.93Z" fill="#BA3F08"/>
<path d="M323.86 467.17C323.86 467.17 187.86 414.17 226.86 299.17C226.86 299.17 188.86 304.17 184.86 353.17C184.86 353.17 127.86 259.17 220.36 182.67L214.86 129.6C151.86 150.17 43.8599 200.17 43.8599 200.17L95.8599 195.17C-39.1401 295.17 25.8599 468.17 22.8599 437.17C19.8599 406.17 52.8599 350.17 52.8599 350.17C40.8599 530.17 184.86 575.17 184.86 575.17C139.86 542.17 127.86 506.17 127.86 506.17C147.86 516.17 192.86 522.17 192.86 522.17C146.86 506.17 135.86 456.17 135.86 456.17C131.27 464.99 129.31 474.88 130.86 479.17C81.8599 419.17 105.86 341.17 105.86 341.17C85.8599 363.17 80.8599 396.17 80.8599 396.17C71.8599 333.17 92.8599 287.17 92.8599 287.17C70.8599 296.17 56.8599 315.17 56.8599 315.17C90.8599 217.17 181.86 198.17 181.86 198.17C74.8599 299.17 150.86 412.17 150.86 412.17C146.86 389.17 151.86 375.17 151.86 375.17C166.86 442.17 245.86 478.17 245.86 478.17C213.86 448.17 213.86 410.17 213.86 410.17C258.86 463.17 323.86 467.17 323.86 467.17Z" fill="#BA3F08"/>
<path d="M415.859 441.17C415.859 441.17 310.229 370.76 311.859 374.17C333.859 420.17 376.859 425.17 388.859 469.17C388.859 469.17 359.859 452.17 344.859 447.17C344.859 447.17 370.859 473.93 374.859 506.93C331.859 498.93 314.859 501.93 267.859 489.93C267.859 489.93 288.859 517.17 317.859 556.17C317.859 556.17 285.859 546.93 261.859 535.93C261.859 535.93 269.859 552.93 291.859 570.93C295.079 571.48 261.859 572.93 215.859 565.93C212.669 565.45 272.859 602.69 408.859 601.93C407.129 597.93 354.859 544.17 354.859 544.17C354.859 544.17 417.859 550.17 467.859 626.17C467.859 626.17 502.859 545.17 415.859 441.17Z" fill="#F29233"/>
<path d="M394.859 30.17C394.859 30.17 364.859 64.17 377.859 120.17L389.859 126.17C389.859 126.17 380.859 70.17 397.859 26.17L394.859 30.17Z" fill="#F29233"/>
<path d="M321.859 10.17C321.859 10.17 258.859 18.17 236.859 150.17C236.859 150.17 228.859 139.17 227.859 107.17C227.859 107.17 247.859 30.17 321.859 10.17Z" fill="#F29233"/>
<path d="M18.8596 434.17C18.8596 434.17 -33.1404 285.17 94.8596 197.17C94.8596 197.17 59.8596 191.17 43.8596 200.17C43.8596 200.17 69.8596 157.17 135.86 148.17C135.86 148.17 97.8596 120.17 109.86 123.17C109.86 123.17 169.86 133.17 225.36 105.17L221.36 121.67C221.36 121.67 219.86 180.17 111.86 178.17L141.86 192.17C141.86 192.17 7.85962 243.17 21.8596 421.17L18.8596 434.17Z" fill="#F29233"/>
<path d="M319.86 369.93C319.86 369.93 327.86 385.93 346.86 403.93C377.38 432.85 442.86 464.17 453.86 568.17C453.86 568.17 417.86 519.93 306.86 515.93C306.86 515.93 362.86 575.17 370.86 585.17C370.86 585.17 305.86 597.17 236.86 576.17C236.86 576.17 322.86 610.17 408.86 604.17L359.86 546.17C359.86 546.17 421.86 558.17 472.86 628.17C472.86 628.17 491.86 514.93 405.86 427.93C405.86 427.93 346.86 393.93 319.86 369.93Z" fill="#F7B565"/>
<path d="M488.251 262.35C444.711 231.35 423.701 219.35 414.651 166.26L406.861 155.93C406.861 155.93 399.861 223.93 475.861 269.93C478.651 267.77 485.401 264.43 488.251 262.35Z" fill="#F7B565"/>
<path d="M296.86 332.17C285.867 344.782 277.382 359.377 271.86 375.17C271.86 375.17 261.86 349.17 277.86 319.17C277.86 319.17 226.86 356.17 260.86 429.17C260.86 429.17 199.86 381.17 229.86 292.17C229.86 292.17 200.86 304.17 181.86 353.17L176.86 342.17C176.86 342.17 196.86 232.17 301.86 244.17C301.86 244.17 270.86 255.17 258.86 283.17C258.86 283.17 297.86 248.17 355.86 271.17C379.44 280.52 399.05 287.06 416.51 290.59C420.87 291.47 398.25 274.13 401.86 276.17C424.86 289.17 465.64 295.17 484.86 286.17L495.86 290.17C495.86 290.17 470.86 306.17 437.86 303.17C437.86 303.17 303.86 262.17 296.86 332.17Z" fill="#E1E1DF"/>
<path d="M313.861 21.17C313.861 21.17 256.861 65.17 270.861 133.17C270.861 133.17 293.861 130.17 310.861 118.17C310.861 118.17 263.861 126.17 313.861 21.17Z" fill="#E1E1DF"/>
<path d="M316.86 621.17C212.86 647.17 137.86 594.87 106.86 569.17C30.8604 506.17 30.8604 426.17 30.8604 426.17C26.8604 439.17 26.8604 462.17 27.5304 484.27C27.1004 484.34 -58.1396 314.17 73.5304 201.58C55.8401 202.874 38.5074 207.222 22.3004 214.43C24.0104 207.53 65.8204 155.17 121.64 145.03C107.54 134.52 98.8604 120.17 91.8604 105.17C142.34 135.42 203.86 112.17 223.97 97.68C224.95 96.9785 225.751 96.0572 226.31 94.99C236.83 73.92 263.97 13.24 330.11 -0.0100098C323.49 24.73 323.74 49.61 328.21 75.3C345.44 47.58 370.21 30.47 400.86 21.16C388.86 54.16 387.86 89.89 390 115C390.65 122.57 392.88 128.92 398.42 134.62C408.75 145.27 414.3 158.7 417.86 172.93C424.04 197.43 437.64 216.93 456.51 233.47C471.51 246.61 487.27 258.47 505.41 267.07C514.53 271.39 515.15 275.17 508.27 282.59C501.03 290.42 492.04 295.84 482.27 299.82C460.43 308.68 437.93 310.24 415.02 305.06C397.02 300.99 379.14 296.94 360.87 294.2C320.87 288.2 279.87 340.2 335.87 379.2C344.64 385.31 391.6 408.47 407.87 421.2C490.02 485.47 493.87 592.2 475.87 643.2C449.03 606.72 417.37 568.27 373.87 552.2C373.87 552.2 413.87 588.2 423.87 605.2C387.87 613.2 307.62 604.27 265.87 594.2C265.86 594.32 293.86 613.17 316.86 621.17ZM333.6 98.17C338.034 111.932 344.271 125.047 352.15 137.17C350.86 136.22 308.86 102.22 319.15 17.49C309.86 36.17 312.86 60.17 313.86 74.17C314.54 83.73 317.53 93.6 317.86 103.17C318.24 114.33 311.64 123.11 300.59 127.53C294.03 130.14 266.86 137.17 254.33 161.48C253.86 122.17 261.02 100.33 264.02 89.87C268.14 75.48 274.02 61.8 282.92 49.61C286.92 44.1 293.18 33.61 311.86 15.17C284.86 23.17 259.65 52.37 249.11 74C241.11 90.32 235.74 107.14 233.86 125.17C233.32 123.77 231.86 113.17 231.76 102.65C217.86 135.17 213.86 170.93 236.86 182.93C150.86 224.93 171.86 325.25 181.86 342.17C193.86 305.17 229.75 279.71 255.37 276.99C234.86 293.17 227.77 323.39 226.86 338.17C224.74 372.48 247.86 437.17 330.86 463.17C322.86 452.17 272.86 404.17 291.75 325.61C281.86 337.17 280.17 342.78 274.86 351.17C281.33 325.49 295.17 304.35 319.99 292.46C313.86 294.17 293.86 293.17 248.86 320.17C285 283.31 337.15 277.17 374.86 285.17C390.36 288.45 419.86 296.39 419.86 296.17C395.63 285.52 372.86 261.17 336.86 249.17C367.86 252.17 430.29 292.72 443.86 296.17C458.24 299.82 472.34 298.62 485.13 290.69C484.32 289.92 476.86 282.17 475.86 276.17C429.86 269.17 409.86 252.52 411.86 253.17C475.12 273.36 483.27 263.41 484.34 262.76C480.01 259.76 446.16 234.07 434.86 220.17C421.86 204.17 415.14 189.35 410.35 171.76C407.364 160.669 402.088 150.327 394.86 141.4C391.5 137.33 351.86 99.17 333.6 98.12V98.17ZM299.86 103.17C300.29 103.74 299.86 114.17 294.86 123.17C304.65 123.59 312.99 112.99 312.86 102.17C312.8 97.09 301.86 53.17 310.86 25.8C309.99 26.8 273.6 73.46 275.39 103.94C275.9 103.17 282.9 89.17 289.14 85.25C288.659 95.8969 287.321 106.488 285.14 116.92C288.23 114.63 296.86 108.2 299.86 103.17ZM339.86 74.17C335.43 82.26 338.86 85.17 344.01 89.23C349.4 93.97 381.57 119.23 383.51 120.88C383.07 116.88 376.86 66.17 391.22 31.93C390.86 32.17 354.86 45.17 339.86 74.17ZM124.86 129.17C135.86 142.17 152.7 147.84 163.78 151.47C123.78 154.39 87.3904 166.4 56.4604 192.67C73.6104 189.53 90.6304 189.01 108.08 193.26C-9.13959 268.17 14.6004 397.12 18.4604 418.93C21.8604 399.18 34.8604 363.18 55.8604 341.18C27.3604 442.18 63.6104 510.68 116.11 553.8C168.61 596.92 215.86 609.17 256.86 610.17C256.01 609.68 220.86 591.17 177.86 544.17C273.86 601.17 395.86 594.17 395.86 594.17C398.53 595.03 342.37 537.03 321.86 521.17C337.86 525.17 415.86 532.17 469.86 611.17C476.28 500.17 414.08 442.17 383.92 424.81C357.86 407.17 313.86 395.17 299.92 357.45C295.92 377.17 311.92 430.17 351.62 475.04C296.86 475.17 183.86 405.17 222.1 304.75C221.73 304.5 189.86 323.17 184.81 368.47C165.13 336.93 157.16 302.79 163.72 266.32C169.52 234.14 183.39 205.8 211.06 184.93H191.37C196.77 181.51 201.37 178.41 206.1 175.68C208.51 174.29 209.5 172.9 209.54 169.9C209.67 160.9 206.86 141.17 218.54 112.22C173.86 133.17 137.72 131.25 124.86 129.17ZM504.38 272.24C500.38 270.8 496.78 268.05 492.5 267.39C490.25 267.04 483.7 269.01 486.86 272.17C489.86 275.17 498.33 274.41 504.38 272.24Z" fill="#3A1D25"/>
<path d="M316.86 172.17C376.86 172.17 384.08 188.61 387.65 194.86C393.85 205.7 414.12 227.15 413.86 228.17C411.73 226.86 393.37 213.59 379.86 208.17C344.86 197.17 355.17 182.67 316.86 172.17ZM379 196.93C375.15 197.93 367.86 195.15 369.68 187.11C366.86 184.11 360.86 182.11 354.68 181.5C360.47 193 368.48 199.65 380.4 201.57C379.91 199.93 379.52 198.69 379 196.93Z" fill="#3A1D25"/>
<path d="M391.92 183.59C386.92 170.59 375.86 161.17 363.86 158.17C369.53 155.98 377.15 157.28 381.86 160.17C388.95 164.52 393.05 175.3 391.92 183.59Z" fill="#3A1D25"/>
</g>
<defs>
<clipPath id="clip0_709_963">
<rect width="512.94" height="643.17" fill="white"/>
</clipPath>
</defs>
</svg>
