<svg width="15" height="10" viewBox="0 0 15 10" fill="none" xmlns="http://www.w3.org/2000/svg">
<path d="M6.09072 9.5356C5.95946 9.53587 5.82943 9.51021 5.70811 9.4601C5.58678 9.41 5.47654 9.33642 5.38372 9.2436L1.14172 5.0006C1.04615 4.90842 0.969893 4.79813 0.917399 4.67617C0.864906 4.5542 0.837228 4.423 0.835982 4.29022C0.834735 4.15745 0.859944 4.02575 0.910138 3.90282C0.960332 3.77989 1.03451 3.66819 1.12833 3.57423C1.22216 3.48027 1.33375 3.40594 1.45661 3.35557C1.57947 3.3052 1.71113 3.27981 1.84391 3.28087C1.97669 3.28193 2.10793 3.30942 2.22997 3.36174C2.35201 3.41406 2.46241 3.49016 2.55472 3.5856L6.08972 7.1206L12.4547 0.757604C12.6422 0.569963 12.8966 0.464495 13.1619 0.464401C13.4271 0.464308 13.6816 0.569596 13.8692 0.757104C14.0569 0.944612 14.1623 1.19898 14.1624 1.46425C14.1625 1.72952 14.0572 1.98396 13.8697 2.1716L6.79772 9.2436C6.7049 9.33642 6.59467 9.41 6.47334 9.4601C6.35202 9.51021 6.22199 9.53587 6.09072 9.5356Z" fill="white"/>
</svg>
