<svg width="48" height="48" viewBox="0 0 48 48" fill="none" xmlns="http://www.w3.org/2000/svg">
<g clip-path="url(#clip0_578_619)">
<path d="M16 26V9C16 8.20435 16.3161 7.44129 16.8787 6.87868C17.4413 6.31607 18.2044 6 19 6C19.7956 6 20.5587 6.31607 21.1213 6.87868C21.6839 7.44129 22 8.20435 22 9V24" stroke="#DE8D00" stroke-width="4" stroke-linecap="round" stroke-linejoin="round"/>
<path d="M22 23V19C22 18.606 22.0776 18.2159 22.2284 17.8519C22.3791 17.488 22.6001 17.1573 22.8787 16.8787C23.1573 16.6001 23.488 16.3791 23.8519 16.2284C24.2159 16.0776 24.606 16 25 16C25.394 16 25.7841 16.0776 26.1481 16.2284C26.512 16.3791 26.8427 16.6001 27.1213 16.8787C27.3999 17.1573 27.6209 17.488 27.7716 17.8519C27.9224 18.2159 28 18.606 28 19V24" stroke="#DE8D00" stroke-width="4" stroke-linecap="round" stroke-linejoin="round"/>
<path d="M28 21C28 20.2044 28.3161 19.4413 28.8787 18.8787C29.4413 18.3161 30.2044 18 31 18C31.7956 18 32.5587 18.3161 33.1213 18.8787C33.6839 19.4413 34 20.2044 34 21V24" stroke="#DE8D00" stroke-width="4" stroke-linecap="round" stroke-linejoin="round"/>
<path d="M34.0004 23C34.0004 22.2044 34.3164 21.4413 34.879 20.8787C35.4417 20.3161 36.2047 20 37.0004 20C37.796 20 38.5591 20.3161 39.1217 20.8787C39.6843 21.4413 40.0004 22.2044 40.0004 23V32C40.0004 35.1826 38.7361 38.2348 36.4856 40.4853C34.2352 42.7357 31.183 44 28.0004 44H24.0004H24.4164C22.429 44.0003 20.4727 43.5071 18.7231 42.5646C16.9735 41.622 15.4854 40.2597 14.3924 38.6C14.2612 38.4003 14.1305 38.2003 14.0004 38C13.3764 37.042 11.1864 33.224 7.42837 26.544C7.04527 25.8631 6.94293 25.0595 7.14313 24.3043C7.34333 23.5491 7.83026 22.9018 8.50037 22.5C9.21412 22.0717 10.0505 21.8942 10.8767 21.9957C11.7029 22.0972 12.4714 22.4718 13.0604 23.06L16.0004 26" stroke="#DE8D00" stroke-width="4" stroke-linecap="round" stroke-linejoin="round"/>
</g>
<defs>
<clipPath id="clip0_578_619">
<rect width="48" height="48" fill="white"/>
</clipPath>
</defs>
</svg>
