<svg width="16" height="17" viewBox="0 0 16 17" fill="none" xmlns="http://www.w3.org/2000/svg">
<path d="M7.99461 5.70988C8.48292 5.70988 8.88011 6.09316 8.88011 6.56452C8.88011 7.03551 8.48292 7.41904 7.99461 7.41904C7.50669 7.41904 7.10911 7.03551 7.10911 6.56452C7.10911 6.09316 7.50669 5.70988 7.99461 5.70988Z" fill="white"/>
<path fill-rule="evenodd" clip-rule="evenodd" d="M8 0.5C3.58172 0.5 0 4.08172 0 8.5C0 12.9183 3.58172 16.5 8 16.5C12.4183 16.5 16 12.9183 16 8.5C16 4.08172 12.4183 0.5 8 0.5ZM7.99466 8.62844C9.17435 8.62844 10.1333 7.70265 10.1333 6.56453C10.1333 5.42604 9.17435 4.5 7.99466 4.5C6.81523 4.5 5.85602 5.42604 5.85602 6.56453C5.85602 7.70265 6.81523 8.62844 7.99466 8.62844ZM8.86542 10.3134C9.30075 10.2177 9.72059 10.0514 10.1073 9.817C10.3999 9.63889 10.4881 9.26548 10.3037 8.98299C10.1195 8.69988 9.73288 8.61465 9.43972 8.79277C8.56368 9.32452 7.43582 9.3244 6.5603 8.79277C6.26714 8.61465 5.88043 8.69988 5.69655 8.98299C5.51216 9.26573 5.60007 9.63889 5.89272 9.817C6.27942 10.0512 6.69927 10.2177 7.13459 10.3134L5.93891 11.4676C5.6945 11.7038 5.6945 12.0867 5.93917 12.3229C6.06163 12.4408 6.22184 12.4999 6.38205 12.4999C6.54251 12.4999 6.70298 12.4408 6.82544 12.3229L7.99988 11.1887L9.17534 12.3229C9.41975 12.559 9.81631 12.559 10.061 12.3229C10.3059 12.0867 10.3059 11.7035 10.061 11.4676L8.86542 10.3134Z" fill="white"/>
</svg>
