<svg width="16" height="17" viewBox="0 0 16 17" fill="none" xmlns="http://www.w3.org/2000/svg">
<path d="M7.2002 10.1V7.43335L9.33353 8.76673L7.2002 10.1Z" fill="white"/>
<path fill-rule="evenodd" clip-rule="evenodd" d="M8 0.5C3.58172 0.5 0 4.08172 0 8.5C0 12.9183 3.58172 16.5 8 16.5C12.4183 16.5 16 12.9183 16 8.5C16 4.08172 12.4183 0.5 8 0.5ZM12.0884 6.52439C11.9903 6.14739 11.7011 5.85051 11.3339 5.74976C10.6685 5.56665 8.00006 5.56665 8.00006 5.56665C8.00006 5.56665 5.3316 5.56665 4.66615 5.74976C4.29897 5.85051 4.00981 6.14739 3.91168 6.52439C3.7334 7.20766 3.7334 8.63332 3.7334 8.63332C3.7334 8.63332 3.7334 10.0589 3.91168 10.7422C4.00981 11.1192 4.29897 11.4161 4.66615 11.5169C5.3316 11.7 8.00006 11.7 8.00006 11.7C8.00006 11.7 10.6685 11.7 11.3339 11.5169C11.7011 11.4161 11.9903 11.1192 12.0884 10.7422C12.2667 10.0589 12.2667 8.63332 12.2667 8.63332C12.2667 8.63332 12.2667 7.20766 12.0884 6.52439Z" fill="white"/>
</svg>
