<svg width="16" height="17" viewBox="0 0 16 17" fill="none" xmlns="http://www.w3.org/2000/svg">
<path fill-rule="evenodd" clip-rule="evenodd" d="M8 0.5C3.58172 0.5 0 4.08172 0 8.5C0 12.9183 3.58172 16.5 8 16.5C12.4183 16.5 16 12.9183 16 8.5C16 4.08172 12.4183 0.5 8 0.5ZM8.65144 11.0254C8.57256 11.1085 8.41855 11.1253 8.41855 11.1253H7.90853C7.90853 11.1253 6.78331 11.1917 5.79207 10.179C4.71109 9.07404 3.75658 6.88182 3.75658 6.88182C3.75658 6.88182 3.70149 6.73802 3.76117 6.66878C3.82837 6.59053 4.01159 6.58562 4.01159 6.58562L5.23071 6.57783C5.23071 6.57783 5.34549 6.59627 5.42771 6.65567C5.49574 6.70483 5.53372 6.79619 5.53372 6.79619C5.53372 6.79619 5.73072 7.28536 5.99157 7.72782C6.50117 8.59184 6.73824 8.78071 6.91103 8.68812C7.16312 8.55333 7.08757 7.46685 7.08757 7.46685C7.08757 7.46685 7.09216 7.07273 6.96069 6.89698C6.85886 6.76096 6.66687 6.72122 6.58214 6.71016C6.51328 6.70115 6.62597 6.54465 6.77205 6.47459C6.99158 6.3693 7.37889 6.36316 7.83675 6.36766C8.19359 6.37135 8.29626 6.39306 8.43566 6.42625C8.75919 6.50288 8.74909 6.74848 8.7273 7.27853C8.72078 7.43706 8.71321 7.62102 8.71321 7.83352C8.71321 7.88127 8.71179 7.93217 8.71034 7.98453C8.70277 8.25609 8.69411 8.56705 8.8764 8.68279C8.96989 8.74179 9.19819 8.69139 9.76957 7.73929C10.0404 7.28782 10.2433 6.75727 10.2433 6.75727C10.2433 6.75727 10.2879 6.66264 10.3568 6.62208C10.4273 6.5807 10.5225 6.5934 10.5225 6.5934L11.8055 6.58562C11.8055 6.58562 12.1911 6.54014 12.2533 6.71139C12.3188 6.89042 12.1093 7.30912 11.5851 7.99493C11.0878 8.64566 10.8459 8.88525 10.8681 9.09714C10.8843 9.25197 11.0416 9.39201 11.3435 9.66685C11.9736 10.2411 12.1425 10.5433 12.1831 10.6159C12.1864 10.6219 12.1889 10.6263 12.1907 10.6292C12.4733 11.0893 11.8773 11.1253 11.8773 11.1253L10.7374 11.1409C10.7374 11.1409 10.4929 11.1884 10.1707 10.9713C10.0019 10.8576 9.83694 10.672 9.67985 10.4952C9.43994 10.2252 9.21832 9.97583 9.02916 10.0348C8.71154 10.1339 8.72114 10.8054 8.72114 10.8054C8.72114 10.8054 8.72365 10.9492 8.65144 11.0254Z" fill="white"/>
</svg>
