<svg width="16" height="17" viewBox="0 0 16 17" fill="none" xmlns="http://www.w3.org/2000/svg">
<g clip-path="url(#clip0_401_546)">
<path d="M8 16.5C3.5816 16.5 0 12.9184 0 8.5C0 4.0824 3.5816 0.5 8 0.5C12.4184 0.5 16 4.0824 16 8.5C16 12.9184 12.4184 16.5 8 16.5ZM9.0208 9.9256L9.336 9.6792C9.62575 9.4528 9.86807 9.17155 10.0491 8.8515C10.2302 8.53145 10.3464 8.17888 10.3912 7.81391C10.436 7.44894 10.4085 7.07872 10.3102 6.72438C10.2119 6.37005 10.0448 6.03855 9.8184 5.7488C9.592 5.45905 9.31075 5.21673 8.9907 5.03568C8.67065 4.85463 8.31808 4.73838 7.95311 4.69359C7.58814 4.64879 7.21792 4.67632 6.86358 4.77461C6.50925 4.87289 6.17775 5.04 5.888 5.2664L5.5728 5.5128C5.48828 5.57684 5.41733 5.65705 5.36409 5.74876C5.31084 5.84048 5.27636 5.94186 5.26265 6.04701C5.24894 6.15217 5.25628 6.259 5.28423 6.3613C5.31218 6.46359 5.36019 6.55931 5.42547 6.64289C5.49075 6.72646 5.57199 6.79622 5.66448 6.84811C5.75696 6.9 5.85884 6.93299 5.96418 6.94515C6.06953 6.95732 6.17624 6.94841 6.27812 6.91896C6.37999 6.88951 6.47499 6.8401 6.5576 6.7736L6.8728 6.5272C7.12369 6.33249 7.44154 6.24517 7.75669 6.28438C8.07185 6.32359 8.35861 6.48614 8.55413 6.7364C8.74966 6.98665 8.83801 7.30422 8.79982 7.6195C8.76163 7.93478 8.60002 8.22206 8.3504 8.4184L8.0352 8.6648C7.95241 8.72952 7.88319 8.8099 7.83147 8.90137C7.77975 8.99284 7.74655 9.0936 7.73378 9.1979C7.721 9.3022 7.72889 9.408 7.757 9.50924C7.78511 9.61049 7.83288 9.70522 7.8976 9.788C7.96232 9.87079 8.0427 9.94001 8.13417 9.99173C8.22564 10.0435 8.3264 10.0766 8.4307 10.0894C8.535 10.1022 8.64079 10.0943 8.74204 10.0662C8.84329 10.0381 8.93801 9.99032 9.0208 9.9256ZM8 12.5C8.21217 12.5 8.41566 12.4157 8.56569 12.2657C8.71571 12.1157 8.8 11.9122 8.8 11.7C8.8 11.4878 8.71571 11.2843 8.56569 11.1343C8.41566 10.9843 8.21217 10.9 8 10.9C7.78783 10.9 7.58434 10.9843 7.43431 11.1343C7.28429 11.2843 7.2 11.4878 7.2 11.7C7.2 11.9122 7.28429 12.1157 7.43431 12.2657C7.58434 12.4157 7.78783 12.5 8 12.5Z" fill="white"/>
</g>
<defs>
<clipPath id="clip0_401_546">
<rect width="16" height="16" fill="white" transform="translate(0 0.5)"/>
</clipPath>
</defs>
</svg>
