<svg width="28" height="28" viewBox="0 0 28 28" fill="none" xmlns="http://www.w3.org/2000/svg">
<path d="M13.9993 16.4374L9.28468 11.724C9.03321 11.4811 8.69641 11.3468 8.34681 11.3498C7.99722 11.3528 7.6628 11.4931 7.41559 11.7403C7.16838 11.9875 7.02815 12.3219 7.02512 12.6715C7.02208 13.0211 7.15647 13.3579 7.39935 13.6094L13.0567 19.2667C13.1802 19.3909 13.3271 19.4895 13.4889 19.5568C13.6507 19.6241 13.8241 19.6587 13.9993 19.6587C14.1746 19.6587 14.348 19.6241 14.5098 19.5568C14.6716 19.4895 14.8185 19.3909 14.942 19.2667L20.5993 13.6094C20.7267 13.4864 20.8283 13.3392 20.8981 13.1766C20.968 13.0139 21.0048 12.8389 21.0063 12.6619C21.0079 12.4848 20.9742 12.3093 20.9071 12.1454C20.8401 11.9816 20.7411 11.8327 20.6159 11.7075C20.4907 11.5823 20.3418 11.4833 20.178 11.4163C20.0141 11.3492 19.8385 11.3155 19.6615 11.317C19.4844 11.3186 19.3095 11.3553 19.1468 11.4252C18.9841 11.4951 18.837 11.5967 18.714 11.724L13.9993 16.4374ZM5.99935 0.666687H21.9993C23.4138 0.666687 24.7704 1.22859 25.7706 2.22878C26.7708 3.22898 27.3327 4.58553 27.3327 6.00002V22C27.3327 23.4145 26.7708 24.7711 25.7706 25.7713C24.7704 26.7714 23.4138 27.3334 21.9993 27.3334H5.99935C4.58486 27.3334 3.22831 26.7714 2.22811 25.7713C1.22792 24.7711 0.666016 23.4145 0.666016 22V6.00002C0.666016 4.58553 1.22792 3.22898 2.22811 2.22878C3.22831 1.22859 4.58486 0.666687 5.99935 0.666687V0.666687Z" fill="#0F172A"/>
</svg>
