<svg width="32" height="32" viewBox="0 0 32 32" fill="none" xmlns="http://www.w3.org/2000/svg">
<path d="M15.9993 24C9.27668 24.0093 2.66602 20.4186 2.66602 16C2.66602 11.5813 9.31135 7.97732 15.9993 7.99998C22.6873 8.02265 29.3327 11.5813 29.3327 16C29.3327 20.4186 22.722 23.9907 15.9993 24ZM15.9993 21.3333C17.4138 21.3333 18.7704 20.7714 19.7706 19.7712C20.7708 18.771 21.3327 17.4145 21.3327 16C21.3327 14.5855 20.7708 13.2289 19.7706 12.2287C18.7704 11.2286 17.4138 10.6667 15.9993 10.6667C14.5849 10.6667 13.2283 11.2286 12.2281 12.2287C11.2279 13.2289 10.666 14.5855 10.666 16C10.666 17.4145 11.2279 18.771 12.2281 19.7712C13.2283 20.7714 14.5849 21.3333 15.9993 21.3333ZM15.9993 18.6667C15.2921 18.6667 14.6138 18.3857 14.1137 17.8856C13.6136 17.3855 13.3327 16.7072 13.3327 16C13.3327 15.2927 13.6136 14.6145 14.1137 14.1144C14.6138 13.6143 15.2921 13.3333 15.9993 13.3333C16.7066 13.3333 17.3849 13.6143 17.885 14.1144C18.3851 14.6145 18.666 15.2927 18.666 16C18.666 16.7072 18.3851 17.3855 17.885 17.8856C17.3849 18.3857 16.7066 18.6667 15.9993 18.6667Z" fill="#0F172A"/>
</svg>
