<svg width="24" height="24" viewBox="0 0 24 24" fill="none" xmlns="http://www.w3.org/2000/svg">
<g clip-path="url(#clip0_401_532)">
<path d="M12 9C14.4825 9 16.5 11.0175 16.5 13.5C16.5 15.9825 14.4825 18 12 18C9.5175 18 7.5 15.9825 7.5 13.5C7.5 11.0175 9.5175 9 12 9Z" fill="#668077"/>
<path d="M12 12C12.8325 12 13.5 12.675 13.5 13.5C13.5 14.325 12.8325 15 12 15C11.175 15 10.5 14.325 10.5 13.5C10.5 12.675 11.175 12 12 12Z" fill="#FFC44D"/>
<path d="M3.00075 15.75C3.75075 18 6.00075 21.75 12.0007 21.75C18.0007 21.75 20.2507 18 21.0007 15.75M23.25 14.25C23.25 12.75 20.2508 5.25 12 5.25M12 5.25C3.75075 5.25 0.75 12.75 0.75 14.25M12 5.25V2.25M15.8819 2.7612L15.1319 5.55795M19.5 4.25977L17.9993 6.85703M22.6062 6.64305L20.4852 8.7633M8.11672 2.7612L8.86597 5.55795M4.49925 4.25977L5.99925 6.85777M1.39305 6.64305L3.51405 8.76405M12.0007 9C9.516 9 7.50075 11.0153 7.50075 13.5C7.50075 15.9847 9.516 18 12.0007 18C14.4855 18 16.5007 15.9847 16.5007 13.5M15.9331 11.3152C15.5251 10.5817 14.9183 9.97567 14.1856 9.56767M13.5007 13.5C13.5007 12.672 12.8287 12 12.0007 12C11.1727 12 10.5008 12.672 10.5008 13.5C10.5008 14.328 11.1727 15 12.0007 15C12.8287 15 13.5007 14.328 13.5007 13.5Z" stroke="white" stroke-width="2" stroke-linecap="round" stroke-linejoin="round"/>
</g>
<defs>
<clipPath id="clip0_401_532">
<rect width="24" height="24" fill="white"/>
</clipPath>
</defs>
</svg>
