<svg width="24" height="25" viewBox="0 0 24 25" fill="none" xmlns="http://www.w3.org/2000/svg">
<g clip-path="url(#clip0_401_522)">
<mask id="mask0_401_522" style="mask-type:luminance" maskUnits="userSpaceOnUse" x="0" y="0" width="24" height="25">
<path d="M24 0.5H0V24.5H24V0.5Z" fill="white"/>
</mask>
<g mask="url(#mask0_401_522)">
<path d="M3.75 7.25H9.75M4.62892 19.8748L8.87092 15.6328M14.25 7.25H20.25M6.75 10.25V4.25M15.1289 19.8748L19.3709 15.6328M19.3711 19.8748L15.1291 15.6328M23.25 23C23.25 23.4147 22.9147 23.75 22.5 23.75H1.5C1.08525 23.75 0.75 23.4147 0.75 23V2C0.75 1.58525 1.08525 1.25 1.5 1.25H22.5C22.9147 1.25 23.25 1.58525 23.25 2V23Z" stroke="white" stroke-width="2" stroke-linecap="round" stroke-linejoin="round"/>
</g>
</g>
<defs>
<clipPath id="clip0_401_522">
<rect width="24" height="24" fill="white" transform="translate(0 0.5)"/>
</clipPath>
</defs>
</svg>
