<svg width="24" height="25" viewBox="0 0 24 25" fill="none" xmlns="http://www.w3.org/2000/svg">
<g clip-path="url(#clip0_401_514)">
<mask id="mask0_401_514" style="mask-type:luminance" maskUnits="userSpaceOnUse" x="0" y="0" width="24" height="25">
<path d="M24 0.5H0V24.5H24V0.5Z" fill="white"/>
</mask>
<g mask="url(#mask0_401_514)">
<path d="M5.25 19.25V2.00375C5.25 2.00375 5.25 1.25 6 1.25H22.5C22.5 1.25 23.25 1.25375 23.25 2.00375V21.5037C23.25 21.5037 23.25 23.75 21 23.75H3C3 23.75 0.75 23.7537 0.75 20.7537V9.50375C0.75 9.50375 0.75 8.75 1.5 8.75H3M9.75 5.75H13.5M9.75 8.75H18.75M9.75 11.75H18.75M9.75 14.75H18.75M9.75 17.75H18.75" stroke="white" stroke-width="2" stroke-linecap="round" stroke-linejoin="round"/>
</g>
</g>
<defs>
<clipPath id="clip0_401_514">
<rect width="24" height="24" fill="white" transform="translate(0 0.5)"/>
</clipPath>
</defs>
</svg>
